<mxfile host="drawio-plugin" modified="2023-08-13T13:18:16.167Z" agent="5.0 (Macintosh; Intel Mac OS X 10_15_7) AppleWebKit/537.36 (KHTML, like Gecko) Chrome/98.0.4758.102 Safari/537.36" etag="KE8u7M0vQNajOtZXuSUL" version="20.5.3" type="embed"><diagram id="vr9iXYwxqTHbQIZzZgli" name="Page-1"><mxGraphModel dx="3397" dy="973" grid="1" gridSize="10" guides="1" tooltips="1" connect="1" arrows="1" fold="1" page="1" pageScale="1" pageWidth="850" pageHeight="1100" math="0" shadow="0"><root><mxCell id="0"/><mxCell id="1" parent="0"/><mxCell id="3" value="" style="shape=folder;fontStyle=1;spacingTop=10;tabWidth=40;tabHeight=14;tabPosition=left;html=1;rounded=0;" parent="1" vertex="1"><mxGeometry x="-100" y="420" width="800" height="330" as="geometry"/></mxCell><mxCell id="4" value="CourseListView" style="swimlane;fontStyle=1;align=center;verticalAlign=top;childLayout=stackLayout;horizontal=1;startSize=26;horizontalStack=0;resizeParent=1;resizeParentMax=0;resizeLast=0;collapsible=1;marginBottom=0;rounded=0;" parent="1" vertex="1"><mxGeometry x="-80" y="541" width="370" height="188" as="geometry"/></mxCell><mxCell id="5" value="- courses: ObservableList&lt;Course&gt;&#10;- courseListView: ListView&lt;Course&gt;&#10;- controller: Controller" style="text;strokeColor=none;fillColor=none;align=left;verticalAlign=top;spacingLeft=4;spacingRight=4;overflow=hidden;rotatable=0;points=[[0,0.5],[1,0.5]];portConstraint=eastwest;rounded=0;" parent="4" vertex="1"><mxGeometry y="26" width="370" height="54" as="geometry"/></mxCell><mxCell id="6" value="" style="line;strokeWidth=1;fillColor=none;align=left;verticalAlign=middle;spacingTop=-1;spacingLeft=3;spacingRight=3;rotatable=0;labelPosition=right;points=[];portConstraint=eastwest;rounded=0;" parent="4" vertex="1"><mxGeometry y="80" width="370" height="8" as="geometry"/></mxCell><mxCell id="7" value="+ CourseListView(controller: Controller, courseList: List&lt;Course&gt;&#10;+ update():void&#10;+ generateUserInterface():void&#10;+ addCourse(Course):void&#10;- createCourse(): void&#10;- selectCourse(Course):void" style="text;strokeColor=none;fillColor=none;align=left;verticalAlign=top;spacingLeft=4;spacingRight=4;overflow=hidden;rotatable=0;points=[[0,0.5],[1,0.5]];portConstraint=eastwest;rounded=0;" parent="4" vertex="1"><mxGeometry y="88" width="370" height="100" as="geometry"/></mxCell><mxCell id="8" value="«interface»&lt;br&gt;&lt;b&gt;Observer&lt;/b&gt;&lt;br&gt;&lt;div style=&quot;text-align: left;&quot;&gt;+update():void&lt;/div&gt;" style="html=1;rounded=0;" parent="1" vertex="1"><mxGeometry x="250" y="440" width="110" height="68" as="geometry"/></mxCell><mxCell id="10" value="CourseDetailView" style="swimlane;fontStyle=1;align=center;verticalAlign=top;childLayout=stackLayout;horizontal=1;startSize=26;horizontalStack=0;resizeParent=1;resizeParentMax=0;resizeLast=0;collapsible=1;marginBottom=0;rounded=0;" parent="1" vertex="1"><mxGeometry x="320" y="550" width="350" height="170" as="geometry"/></mxCell><mxCell id="11" value="- controller: Controller&#10;- course: Course&#10;- idTextField: TextField&#10;- nameTextField: TextField" style="text;strokeColor=none;fillColor=none;align=left;verticalAlign=top;spacingLeft=4;spacingRight=4;overflow=hidden;rotatable=0;points=[[0,0.5],[1,0.5]];portConstraint=eastwest;rounded=0;" parent="10" vertex="1"><mxGeometry y="26" width="350" height="64" as="geometry"/></mxCell><mxCell id="12" value="" style="line;strokeWidth=1;fillColor=none;align=left;verticalAlign=middle;spacingTop=-1;spacingLeft=3;spacingRight=3;rotatable=0;labelPosition=right;points=[];portConstraint=eastwest;rounded=0;" parent="10" vertex="1"><mxGeometry y="90" width="350" height="8" as="geometry"/></mxCell><mxCell id="13" value="+ CourseDetailView(controller: Controller, course: Course&#10;+ update():void&#10;+ generateUserInterface():void&#10;- save():void" style="text;strokeColor=none;fillColor=none;align=left;verticalAlign=top;spacingLeft=4;spacingRight=4;overflow=hidden;rotatable=0;points=[[0,0.5],[1,0.5]];portConstraint=eastwest;rounded=0;" parent="10" vertex="1"><mxGeometry y="98" width="350" height="72" as="geometry"/></mxCell><mxCell id="14" value="" style="endArrow=block;endSize=16;endFill=0;html=1;rounded=0;exitX=0.5;exitY=0;exitDx=0;exitDy=0;entryX=0.25;entryY=1;entryDx=0;entryDy=0;" parent="1" source="4" target="8" edge="1"><mxGeometry width="160" relative="1" as="geometry"><mxPoint x="90" y="780" as="sourcePoint"/><mxPoint x="250" y="780" as="targetPoint"/></mxGeometry></mxCell><mxCell id="15" value="" style="endArrow=block;endSize=16;endFill=0;html=1;rounded=0;exitX=0.5;exitY=0;exitDx=0;exitDy=0;entryX=0.75;entryY=1;entryDx=0;entryDy=0;" parent="1" source="10" target="8" edge="1"><mxGeometry width="160" relative="1" as="geometry"><mxPoint x="145" y="580" as="sourcePoint"/><mxPoint x="270" y="530" as="targetPoint"/></mxGeometry></mxCell><mxCell id="17" value="" style="shape=folder;fontStyle=1;spacingTop=10;tabWidth=40;tabHeight=14;tabPosition=left;html=1;rounded=0;" parent="1" vertex="1"><mxGeometry x="270" y="830" width="250" height="360" as="geometry"/></mxCell><mxCell id="18" value="View" style="text;html=1;strokeColor=none;fillColor=none;align=center;verticalAlign=middle;whiteSpace=wrap;rounded=0;" parent="1" vertex="1"><mxGeometry x="-90" y="420" width="30" height="10" as="geometry"/></mxCell><mxCell id="19" value="model" style="text;html=1;strokeColor=none;fillColor=none;align=center;verticalAlign=middle;whiteSpace=wrap;rounded=0;" parent="1" vertex="1"><mxGeometry x="270" y="830" width="40" height="10" as="geometry"/></mxCell><mxCell id="20" value="Course&#10;" style="swimlane;fontStyle=1;align=center;verticalAlign=top;childLayout=stackLayout;horizontal=1;startSize=26;horizontalStack=0;resizeParent=1;resizeParentMax=0;resizeLast=0;collapsible=1;marginBottom=0;rounded=0;" parent="1" vertex="1"><mxGeometry x="290" y="870" width="210" height="110" as="geometry"/></mxCell><mxCell id="21" value="- id: String&#10;- name: String" style="text;strokeColor=none;fillColor=none;align=left;verticalAlign=top;spacingLeft=4;spacingRight=4;overflow=hidden;rotatable=0;points=[[0,0.5],[1,0.5]];portConstraint=eastwest;rounded=0;" parent="20" vertex="1"><mxGeometry y="26" width="210" height="44" as="geometry"/></mxCell><mxCell id="22" value="" style="line;strokeWidth=1;fillColor=none;align=left;verticalAlign=middle;spacingTop=-1;spacingLeft=3;spacingRight=3;rotatable=0;labelPosition=right;points=[];portConstraint=eastwest;rounded=0;" parent="20" vertex="1"><mxGeometry y="70" width="210" height="8" as="geometry"/></mxCell><mxCell id="23" value="+ Course(id: String, name: String)" style="text;strokeColor=none;fillColor=none;align=left;verticalAlign=top;spacingLeft=4;spacingRight=4;overflow=hidden;rotatable=0;points=[[0,0.5],[1,0.5]];portConstraint=eastwest;rounded=0;" parent="20" vertex="1"><mxGeometry y="78" width="210" height="32" as="geometry"/></mxCell><mxCell id="24" value="" style="shape=folder;fontStyle=1;spacingTop=10;tabWidth=40;tabHeight=14;tabPosition=left;html=1;rounded=0;" parent="1" vertex="1"><mxGeometry x="820" y="580" width="260" height="180" as="geometry"/></mxCell><mxCell id="25" value="&lt;font style=&quot;font-size: 10px;&quot;&gt;controller&lt;/font&gt;" style="text;html=1;strokeColor=none;fillColor=none;align=center;verticalAlign=middle;whiteSpace=wrap;rounded=0;" parent="1" vertex="1"><mxGeometry x="820" y="580" width="40" height="10" as="geometry"/></mxCell><mxCell id="26" value="Controller" style="swimlane;fontStyle=1;align=center;verticalAlign=top;childLayout=stackLayout;horizontal=1;startSize=26;horizontalStack=0;resizeParent=1;resizeParentMax=0;resizeLast=0;collapsible=1;marginBottom=0;rounded=0;" parent="1" vertex="1"><mxGeometry x="840" y="620" width="210" height="130" as="geometry"/></mxCell><mxCell id="27" value="- courseListView: CourseListView&#10;- courseDetailView: CourseDetailView" style="text;strokeColor=none;fillColor=none;align=left;verticalAlign=top;spacingLeft=4;spacingRight=4;overflow=hidden;rotatable=0;points=[[0,0.5],[1,0.5]];portConstraint=eastwest;rounded=0;" parent="26" vertex="1"><mxGeometry y="26" width="210" height="44" as="geometry"/></mxCell><mxCell id="28" value="" style="line;strokeWidth=1;fillColor=none;align=left;verticalAlign=middle;spacingTop=-1;spacingLeft=3;spacingRight=3;rotatable=0;labelPosition=right;points=[];portConstraint=eastwest;rounded=0;" parent="26" vertex="1"><mxGeometry y="70" width="210" height="8" as="geometry"/></mxCell><mxCell id="29" value="+ saveCourse(Course): void&#10;+ selectCourse(Course): void" style="text;strokeColor=none;fillColor=none;align=left;verticalAlign=top;spacingLeft=4;spacingRight=4;overflow=hidden;rotatable=0;points=[[0,0.5],[1,0.5]];portConstraint=eastwest;rounded=0;" parent="26" vertex="1"><mxGeometry y="78" width="210" height="52" as="geometry"/></mxCell><mxCell id="30" value="" style="endArrow=block;endFill=1;html=1;edgeStyle=orthogonalEdgeStyle;align=left;verticalAlign=top;rounded=0;fontSize=10;entryX=0.001;entryY=0.101;entryDx=0;entryDy=0;entryPerimeter=0;exitX=0.401;exitY=1.008;exitDx=0;exitDy=0;exitPerimeter=0;" parent="1" source="7" target="21" edge="1"><mxGeometry x="-1" relative="1" as="geometry"><mxPoint x="50" y="820" as="sourcePoint"/><mxPoint x="210" y="820" as="targetPoint"/></mxGeometry></mxCell><mxCell id="31" value="&lt;font style=&quot;font-size: 19px;&quot;&gt;*&lt;/font&gt;" style="edgeLabel;resizable=0;html=1;align=left;verticalAlign=bottom;fontSize=10;rounded=0;" parent="30" connectable="0" vertex="1"><mxGeometry x="-1" relative="1" as="geometry"><mxPoint x="182" y="200" as="offset"/></mxGeometry></mxCell><mxCell id="36" value="" style="endArrow=open;endSize=12;dashed=1;html=1;rounded=0;fontSize=19;entryX=1;entryY=0.5;entryDx=0;entryDy=0;" parent="1" source="26" target="21" edge="1"><mxGeometry width="160" relative="1" as="geometry"><mxPoint x="320" y="790" as="sourcePoint"/><mxPoint x="480" y="790" as="targetPoint"/></mxGeometry></mxCell><mxCell id="37" value="" style="endArrow=block;endFill=1;html=1;edgeStyle=orthogonalEdgeStyle;align=left;verticalAlign=top;rounded=0;fontSize=19;entryX=0.5;entryY=0;entryDx=0;entryDy=0;exitX=0.479;exitY=0.989;exitDx=0;exitDy=0;exitPerimeter=0;" parent="1" source="13" target="20" edge="1"><mxGeometry x="-1" relative="1" as="geometry"><mxPoint x="360" y="780" as="sourcePoint"/><mxPoint x="520" y="780" as="targetPoint"/></mxGeometry></mxCell><mxCell id="40" value="" style="endArrow=block;endFill=1;html=1;edgeStyle=orthogonalEdgeStyle;align=left;verticalAlign=top;rounded=0;fontSize=19;entryX=0.5;entryY=0;entryDx=0;entryDy=0;exitX=-0.002;exitY=0.179;exitDx=0;exitDy=0;exitPerimeter=0;" parent="1" source="7" target="26" edge="1"><mxGeometry x="-1" relative="1" as="geometry"><mxPoint x="-30" y="740" as="sourcePoint"/><mxPoint x="405" y="870" as="targetPoint"/><Array as="points"><mxPoint x="-150" y="647"/><mxPoint x="-150" y="400"/><mxPoint x="945" y="400"/></Array></mxGeometry></mxCell><mxCell id="41" value="«abstract»&#10;Observable" style="swimlane;fontStyle=1;align=center;verticalAlign=top;childLayout=stackLayout;horizontal=1;startSize=40;horizontalStack=0;resizeParent=1;resizeParentMax=0;resizeLast=0;collapsible=1;marginBottom=0;rounded=0;" parent="1" vertex="1"><mxGeometry x="290" y="1030" width="210" height="130" as="geometry"/></mxCell><mxCell id="42" value="- observers: List&lt;Observer&gt;" style="text;strokeColor=none;fillColor=none;align=left;verticalAlign=top;spacingLeft=4;spacingRight=4;overflow=hidden;rotatable=0;points=[[0,0.5],[1,0.5]];portConstraint=eastwest;rounded=0;" parent="41" vertex="1"><mxGeometry y="40" width="210" height="30" as="geometry"/></mxCell><mxCell id="43" value="" style="line;strokeWidth=1;fillColor=none;align=left;verticalAlign=middle;spacingTop=-1;spacingLeft=3;spacingRight=3;rotatable=0;labelPosition=right;points=[];portConstraint=eastwest;rounded=0;" parent="41" vertex="1"><mxGeometry y="70" width="210" height="8" as="geometry"/></mxCell><mxCell id="44" value="+ notifyObservers(): void&#10;+ addObserver(Observer): void&#10;- removeObserver(Observer):void" style="text;strokeColor=none;fillColor=none;align=left;verticalAlign=top;spacingLeft=4;spacingRight=4;overflow=hidden;rotatable=0;points=[[0,0.5],[1,0.5]];portConstraint=eastwest;rounded=0;" parent="41" vertex="1"><mxGeometry y="78" width="210" height="52" as="geometry"/></mxCell><mxCell id="45" value="" style="endArrow=block;endSize=16;endFill=0;html=1;rounded=0;entryX=0.5;entryY=0;entryDx=0;entryDy=0;" parent="1" source="20" target="41" edge="1"><mxGeometry width="160" relative="1" as="geometry"><mxPoint x="257.5" y="1042" as="sourcePoint"/><mxPoint x="160" y="980" as="targetPoint"/></mxGeometry></mxCell><mxCell id="46" value="" style="endArrow=block;endFill=1;html=1;edgeStyle=orthogonalEdgeStyle;align=left;verticalAlign=top;rounded=0;fontSize=19;entryX=-0.003;entryY=0.049;entryDx=0;entryDy=0;exitX=0.998;exitY=0.859;exitDx=0;exitDy=0;exitPerimeter=0;entryPerimeter=0;" parent="1" source="11" target="27" edge="1"><mxGeometry x="-1" relative="1" as="geometry"><mxPoint x="497.64999999999964" y="737.3400000000001" as="sourcePoint"/><mxPoint x="405" y="880" as="targetPoint"/></mxGeometry></mxCell></root></mxGraphModel></diagram></mxfile>